<?xml version="1.0" encoding="utf-8"?>
<!-- Generator: Adobe Illustrator 24.2.0, SVG Export Plug-In . SVG Version: 6.00 Build 0)  -->
<svg version="1.1" id="Layer_1" xmlns="http://www.w3.org/2000/svg" xmlns:xlink="http://www.w3.org/1999/xlink" width="200px" height="200px"
	 viewBox="0 0 179 70.9" style="enable-background:new 0 0 179 70.9;" xml:space="preserve">
<style type="text/css">
	.st0{fill:#FF326E;}
	.st1{fill:#FFFFFF;}
</style>
<polygon class="st0" points="0,23.6 0,70.9 35.4,70.9 35.4,59.1 11.8,59.1 11.8,23.6 "/>
<polygon class="st1" points="35.4,0 0,0 0,11.8 35.4,11.8 35.4,59.1 47.2,59.1 47.2,11.8 "/>
<polygon class="st0" points="64.1,24.9 64.1,41.6 74.6,41.6 74.6,45.7 59.1,45.7 59.1,24.9 "/>
<polygon class="st0" points="167.9,45.6 162.3,31 167.3,31 170.8,40.5 170.9,40.5 174.4,31 179,31 173.4,45.6 "/>
<path class="st0" d="M86.2,36.8c-0.1-1.4-1-2.8-2.8-2.8c-1.9,0-2.8,1.2-3.1,2.8H86.2z M90.7,40.8c-0.8,3.3-3.4,5.2-7.2,5.2
	c-4.6,0-7.9-2.8-7.9-7.5c0-4.6,3.4-7.9,7.8-7.9c4.8,0,7.4,3.3,7.4,7.3v1.4H80.2c0.1,1.9,1.6,3.1,3.4,3.1c1.7,0,2.7-0.6,3.2-2
	L90.7,40.8z"/>
<path class="st0" d="M101.1,39.1l-2.4,0.5c-1.5,0.3-2.4,0.7-2.4,1.8c0,0.9,0.7,1.4,1.7,1.4c1.7,0,3.1-1.3,3.1-3.4L101.1,39.1
	L101.1,39.1z M105.8,41.6c0,0.8,0.3,1.1,0.9,1.1c0.4,0,0.8-0.1,1.2-0.3V45c-0.7,0.5-1.7,0.9-3.1,0.9c-1.8,0-3-0.9-3.5-2.6
	c-0.8,1.7-2.6,2.6-4.9,2.6c-2.9,0-4.8-1.5-4.8-4c0-2.8,2.1-4,5.3-4.6l4.1-0.7v-0.3c0-1.4-0.7-2.2-2.1-2.2c-1.4,0-2.1,0.8-2.3,2.1
	l-4.4-0.3c0.5-3.1,2.8-5.3,7-5.3c3.8,0,6.6,1.7,6.6,5.7L105.8,41.6L105.8,41.6z"/>
<path class="st0" d="M119.8,38.1c0-2.3-1.4-3.8-3.3-3.8c-2.3,0-3.3,1.6-3.3,4c0,2.4,1,4,3.3,4c1.9,0,3.3-1.5,3.3-3.8V38.1z
	 M119.8,43c-0.7,1.7-2.4,3-4.9,3c-4.3,0-6.5-3.4-6.5-7.7c0-4.3,2.2-7.7,6.5-7.7c2.5,0,4.2,1.3,4.9,3v-8.8h4.8v20.7h-4.8V43z"/>
<path class="st0" d="M135,41.7c3.9,0,6.2-2.4,6.2-6.5c0-4-2.3-6.4-6.2-6.4h-2.7v12.8H135z M127.3,24.9h8c6.8,0,11,3.9,11,10.4
	c0,6.5-4.2,10.4-11,10.4h-8V24.9z"/>
<path class="st0" d="M158,36.8c-0.1-1.4-1-2.8-2.8-2.8c-1.9,0-2.8,1.2-3.1,2.8H158z M162.5,40.8c-0.8,3.3-3.4,5.2-7.2,5.2
	c-4.6,0-7.9-2.8-7.9-7.5c0-4.6,3.4-7.9,7.8-7.9c4.8,0,7.4,3.3,7.4,7.3v1.4H152c0.1,1.9,1.6,3.1,3.4,3.1c1.6,0,2.7-0.6,3.2-2
	L162.5,40.8z"/>
</svg>
